<?xml version="1.0" encoding="utf-8"?>
<!-- Generator: Adobe Illustrator 22.0.1, SVG Export Plug-In . SVG Version: 6.00 Build 0)  -->
<svg version="1.1" id="레이어_1" xmlns="http://www.w3.org/2000/svg" xmlns:xlink="http://www.w3.org/1999/xlink" x="0px"
	 y="0px" viewBox="0 0 238.3 72.8" style="enable-background:new 0 0 238.3 72.8;" xml:space="preserve">
<style type="text/css">
	.st0{fill:#AD8605;}
	.st1{fill:#ADB0B2;}
	.st2{fill:#003D7D;}
</style>
<path class="st0" d="M76.7,42l-6.2,14.5c-2.7,5.7-5.5,9.8-8.5,12.1c-0.1,0-0.1,0.1-0.2,0.1c-0.6,0.5-1.3,0.8-1.9,1.1h14.7
	c5.3,0,9.6-1.3,12.9-3.9c4.2-3.2,8.2-9.2,11.8-17.7h0l8.1-18.9H76.1c-2.6,0-4.8,0.6-6.4,1.9c-2.1,1.6-4.4,5.1-6.7,10.6"/>
<path class="st1" d="M40.4,29.8L23.2,69.8h16.2c0,0-4-1.8-1.6-9C40.2,53.5,52,28.7,52,28.7s5.9-12.9,21.1-12.9h40l1.7-4H73.2
	C51.9,11.9,44.5,20.4,40.4,29.8"/>
<path class="st2" d="M73.2,10.1h42.3l3.3-7.9H68.3c-28.4,0-43.4,14.2-47.9,25.4L2.2,69.8h19.1L38.8,29C42.9,19.2,51.5,10,73.2,10.1"
	/>
<path class="st2" d="M235.4,52.9v2.4h-6.7v4.2h5.9v2.4h-5.9v4.5c0,0.6,0.3,0.8,0.8,0.8h7l-1,2.4h-10.8V52.9"/>
<polyline class="st2" points="209.5,69.4 206.5,69.4 206.5,52.9 "/>
<polyline class="st2" points="221.7,52.9 221.7,69.4 218.3,69.4 "/>
<rect x="199.2" y="52.9" class="st2" width="4.1" height="16.5"/>
<path class="st2" d="M189.7,52.9v13.3c0,0.6,0.3,0.8,0.8,0.8h6.8l-1.1,2.4h-10.6V52.9"/>
<path class="st2" d="M163.6,69.4H153V52.9h4.1v13.3c0,0.6,0.3,0.8,0.8,0.8h6.8"/>
<path class="st2" d="M142.2,69.8c4.8,0,8.6-3.6,8.6-8.7c0-6.1-3.8-8.8-8.6-8.8c-4.6,0-8.6,3.4-8.6,8.8
	C133.6,66.9,137,69.8,142.2,69.8 M142.2,54.7c2.1,0,4.3,1.2,4.3,6.5c0,5.1-2.2,6.4-4.3,6.4c-2.2,0-4.3-1.2-4.3-6.4
	C137.9,55.9,140.2,54.7,142.2,54.7"/>
<polyline class="st2" points="218.3,69.4 221.7,69.4 221.7,52.9 218.6,52.9 218.6,63.6 211,52.9 206.5,52.9 206.5,69.4 209.5,69.4 
	209.5,57.7 "/>
<path class="st2" d="M173.8,52.9h-1.5l-1,2.2h1.9c3.4,0,5.1,2.3,5.1,6c0,4.5-2.8,6.1-5.4,6.1h-1.5c-0.4,0-0.8-0.1-0.8-0.7V52.9h-4.1
	v16.5h6.6c5.7,0,9.6-3.4,9.6-8.7C182.8,55,179.1,52.9,173.8,52.9"/>
<path class="st2" d="M127.1,67.2c-0.6,0.2-1.4,0.4-2.3,0.4c-3.7,0-5.1-2.9-5.1-6.6c0-3.6,1.9-6.1,6.1-6.1c1.7,0,3.4,0.5,4.6,1.2
	l0.5-1.1l0.5-1.4c-1.7-0.8-4-1.2-6.2-1.2c-6,0-9.9,3.7-9.9,8.7c0,5.4,3.1,8.6,9.1,8.6c2.4,0,5-0.4,6.8-0.9v-7.2h-4.1"/>
<path class="st2" d="M118.4,39.8v4.6c0,0.7,0.2,1.2,0.6,1.7c0.4,0.5,0.9,0.7,1.4,0.7h9.6v-7 M127.4,44.9h-5.7
	c-0.2,0-0.4-0.1-0.6-0.2c-0.1-0.1-0.2-0.2-0.2-0.4v-2.7h6.5V44.9z"/>
<rect x="127.4" y="29.4" class="st2" width="2.6" height="9.7"/>
<path class="st2" d="M122.2,36.5c0.8-0.7,1.4-1.4,1.8-2.3c0.5-0.9,0.7-1.8,0.7-2.8v-1.7h-8.5v1.9h5.8c0,0.6-0.2,1.3-0.4,1.8
	c-0.3,0.6-0.7,1.2-1.2,1.6c-0.5,0.5-1.1,0.9-1.9,1.2c-0.7,0.3-1.5,0.5-2.3,0.6l-0.2,0v1.9l0.2,0c1.2,0,2.3-0.3,3.3-0.7
	C120.6,37.7,121.5,37.2,122.2,36.5"/>
<path class="st2" d="M142.2,43.6v-3.8h5.6v-1.9h-2.6c0.1-0.3,0.2-0.6,0.2-1c0.1-0.5,0.1-1.1,0.1-1.8v-3.5h2.2v-1.9H134v1.9h2.3v6.3
	l-2.3,0v1.9h5.6v3.8h-7.1v1.9h16.8v-1.9 M138.8,37.9v-6.3h4.2V35c0,0.7,0,1.3-0.1,1.8c-0.1,0.4-0.1,0.8-0.3,1.1H138.8z"/>
</svg>
